{
	"patcher" : 	{
		"fileversion" : 1,
		"appversion" : 		{
			"major" : 7,
			"minor" : 3,
			"revision" : 4,
			"architecture" : "x64",
			"modernui" : 1
		}
,
		"rect" : [ 1962.0, 85.0, 1446.0, 929.0 ],
		"bglocked" : 0,
		"openinpresentation" : 0,
		"default_fontsize" : 12.0,
		"default_fontface" : 0,
		"default_fontname" : "Arial",
		"gridonopen" : 1,
		"gridsize" : [ 15.0, 15.0 ],
		"gridsnaponopen" : 1,
		"objectsnaponopen" : 1,
		"statusbarvisible" : 2,
		"toolbarvisible" : 1,
		"lefttoolbarpinned" : 0,
		"toptoolbarpinned" : 0,
		"righttoolbarpinned" : 0,
		"bottomtoolbarpinned" : 0,
		"toolbars_unpinned_last_save" : 0,
		"tallnewobj" : 0,
		"boxanimatetime" : 200,
		"enablehscroll" : 1,
		"enablevscroll" : 1,
		"devicewidth" : 0.0,
		"description" : "",
		"digest" : "",
		"tags" : "",
		"style" : "",
		"subpatcher_template" : "",
		"boxes" : [ 			{
				"box" : 				{
					"id" : "obj-15",
					"maxclass" : "gain~",
					"numinlets" : 1,
					"numoutlets" : 2,
					"outlettype" : [ "signal", "int" ],
					"parameter_enable" : 0,
					"patching_rect" : [ 255.941162, 804.0, 22.0, 140.0 ],
					"style" : ""
				}

			}
, 			{
				"box" : 				{
					"id" : "obj-4",
					"maxclass" : "gain~",
					"numinlets" : 1,
					"numoutlets" : 2,
					"outlettype" : [ "signal", "int" ],
					"parameter_enable" : 0,
					"patching_rect" : [ 128.5, 799.0, 22.0, 140.0 ],
					"style" : ""
				}

			}
, 			{
				"box" : 				{
					"id" : "obj-68",
					"maxclass" : "message",
					"numinlets" : 2,
					"numoutlets" : 1,
					"outlettype" : [ "" ],
					"patching_rect" : [ 1070.0, 696.0, 37.0, 22.0 ],
					"style" : "",
					"text" : "bang"
				}

			}
, 			{
				"box" : 				{
					"id" : "obj-65",
					"maxclass" : "gain~",
					"numinlets" : 1,
					"numoutlets" : 2,
					"outlettype" : [ "signal", "int" ],
					"parameter_enable" : 0,
					"patching_rect" : [ 515.0, 804.0, 22.0, 140.0 ],
					"style" : ""
				}

			}
, 			{
				"box" : 				{
					"data" : 					{
						"clips" : [ 							{
								"filename" : "instructions.wav",
								"filekind" : "audiofile",
								"selection" : [ 0.0, 1.0 ],
								"loop" : 0,
								"content_state" : 								{
									"speed" : [ 1.0 ],
									"originaltempo" : [ 120.0 ],
									"play" : [ 1 ],
									"slurtime" : [ 0.0 ],
									"formantcorrection" : [ 0 ],
									"originallengthms" : [ 0.0 ],
									"mode" : [ "basic" ],
									"basictuning" : [ 440 ],
									"quality" : [ "basic" ],
									"pitchcorrection" : [ 0 ],
									"formant" : [ 1.0 ],
									"originallength" : [ 0.0, "ticks" ],
									"pitchshift" : [ 1.0 ],
									"followglobaltempo" : [ 0 ],
									"timestretch" : [ 0 ]
								}

							}
 ]
					}
,
					"id" : "obj-38",
					"maxclass" : "playlist~",
					"numinlets" : 1,
					"numoutlets" : 5,
					"outlettype" : [ "signal", "signal", "signal", "", "dictionary" ],
					"patching_rect" : [ 95.25, 651.0, 150.0, 30.0 ],
					"style" : ""
				}

			}
, 			{
				"box" : 				{
					"data" : 					{
						"clips" : [ 							{
								"filename" : "Mission Falied.wav",
								"filekind" : "audiofile",
								"selection" : [ 0.0, 1.0 ],
								"loop" : 0,
								"content_state" : 								{
									"speed" : [ 1.0 ],
									"originaltempo" : [ 120.0 ],
									"play" : [ 0 ],
									"slurtime" : [ 0.0 ],
									"formantcorrection" : [ 0 ],
									"originallengthms" : [ 0.0 ],
									"mode" : [ "basic" ],
									"basictuning" : [ 440 ],
									"quality" : [ "basic" ],
									"pitchcorrection" : [ 0 ],
									"formant" : [ 1.0 ],
									"originallength" : [ 0.0, "ticks" ],
									"pitchshift" : [ 1.0 ],
									"followglobaltempo" : [ 0 ],
									"timestretch" : [ 0 ]
								}

							}
 ]
					}
,
					"id" : "obj-39",
					"maxclass" : "playlist~",
					"numinlets" : 1,
					"numoutlets" : 5,
					"outlettype" : [ "signal", "signal", "signal", "", "dictionary" ],
					"patching_rect" : [ 418.941162, 651.0, 150.0, 30.0 ],
					"style" : ""
				}

			}
, 			{
				"box" : 				{
					"data" : 					{
						"clips" : [ 							{
								"filename" : "Mission Completed.wav",
								"filekind" : "audiofile",
								"selection" : [ 0.0, 1.0 ],
								"loop" : 0,
								"content_state" : 								{
									"speed" : [ 1.0 ],
									"originaltempo" : [ 120.0 ],
									"play" : [ 0 ],
									"slurtime" : [ 0.0 ],
									"formantcorrection" : [ 0 ],
									"originallengthms" : [ 0.0 ],
									"mode" : [ "basic" ],
									"basictuning" : [ 440 ],
									"quality" : [ "basic" ],
									"pitchcorrection" : [ 0 ],
									"formant" : [ 1.0 ],
									"originallength" : [ 0.0, "ticks" ],
									"pitchshift" : [ 1.0 ],
									"followglobaltempo" : [ 0 ],
									"timestretch" : [ 0 ]
								}

							}
 ]
					}
,
					"id" : "obj-36",
					"maxclass" : "playlist~",
					"numinlets" : 1,
					"numoutlets" : 5,
					"outlettype" : [ "signal", "signal", "signal", "", "dictionary" ],
					"patching_rect" : [ 577.0, 651.0, 150.0, 30.0 ],
					"style" : ""
				}

			}
, 			{
				"box" : 				{
					"id" : "obj-13",
					"maxclass" : "newobj",
					"numinlets" : 2,
					"numoutlets" : 1,
					"outlettype" : [ "bang" ],
					"patching_rect" : [ 264.0, 81.0, 51.0, 22.0 ],
					"style" : "",
					"text" : "metro 1"
				}

			}
, 			{
				"box" : 				{
					"id" : "obj-5",
					"maxclass" : "message",
					"numinlets" : 2,
					"numoutlets" : 1,
					"outlettype" : [ "" ],
					"patching_rect" : [ 410.0, 64.0, 29.5, 22.0 ],
					"style" : "",
					"text" : "1"
				}

			}
, 			{
				"box" : 				{
					"id" : "obj-3",
					"maxclass" : "newobj",
					"numinlets" : 1,
					"numoutlets" : 0,
					"patching_rect" : [ 93.5, 403.0, 57.0, 22.0 ],
					"style" : "",
					"text" : "print raw"
				}

			}
, 			{
				"box" : 				{
					"id" : "obj-116",
					"maxclass" : "newobj",
					"numinlets" : 2,
					"numoutlets" : 1,
					"outlettype" : [ "int" ],
					"patching_rect" : [ 789.0, 624.0, 29.5, 22.0 ],
					"style" : "",
					"text" : "- 1"
				}

			}
, 			{
				"box" : 				{
					"id" : "obj-114",
					"maxclass" : "newobj",
					"numinlets" : 2,
					"numoutlets" : 1,
					"outlettype" : [ "int" ],
					"patching_rect" : [ 95.25, 624.0, 29.5, 22.0 ],
					"style" : "",
					"text" : "- 1"
				}

			}
, 			{
				"box" : 				{
					"id" : "obj-105",
					"maxclass" : "newobj",
					"numinlets" : 2,
					"numoutlets" : 1,
					"outlettype" : [ "int" ],
					"patching_rect" : [ 255.941162, 627.0, 29.5, 22.0 ],
					"style" : "",
					"text" : "- 1"
				}

			}
, 			{
				"box" : 				{
					"data" : 					{
						"clips" : [ 							{
								"filename" : "197751__wjoojoo__underwater-ambience-lake-lbj-08232013-1.flac",
								"filekind" : "audiofile",
								"selection" : [ 0.0, 1.0 ],
								"loop" : 1,
								"content_state" : 								{
									"speed" : [ 1.0 ],
									"originaltempo" : [ 120.0 ],
									"play" : [ 1 ],
									"slurtime" : [ 0.0 ],
									"formantcorrection" : [ 0 ],
									"originallengthms" : [ 0.0 ],
									"mode" : [ "basic" ],
									"basictuning" : [ 440 ],
									"quality" : [ "basic" ],
									"pitchcorrection" : [ 0 ],
									"formant" : [ 1.0 ],
									"originallength" : [ 0.0, "ticks" ],
									"pitchshift" : [ 1.0 ],
									"followglobaltempo" : [ 0 ],
									"timestretch" : [ 0 ]
								}

							}
 ]
					}
,
					"id" : "obj-89",
					"maxclass" : "playlist~",
					"numinlets" : 1,
					"numoutlets" : 5,
					"outlettype" : [ "signal", "signal", "signal", "", "dictionary" ],
					"patching_rect" : [ 255.941162, 651.0, 150.0, 30.0 ],
					"style" : ""
				}

			}
, 			{
				"box" : 				{
					"data" : 					{
						"clips" : [ 							{
								"filename" : "38701__argitoth__archi-sonar-02.wav",
								"filekind" : "audiofile",
								"selection" : [ 0.278846, 1.0 ],
								"loop" : 1,
								"content_state" : 								{
									"speed" : [ 1.0 ],
									"originaltempo" : [ 120.0 ],
									"play" : [ 0 ],
									"slurtime" : [ 0.0 ],
									"formantcorrection" : [ 0 ],
									"originallengthms" : [ 0.0 ],
									"mode" : [ "basic" ],
									"basictuning" : [ 440 ],
									"quality" : [ "basic" ],
									"pitchcorrection" : [ 0 ],
									"formant" : [ 1.0 ],
									"originallength" : [ 0.0, "ticks" ],
									"pitchshift" : [ 1.0 ],
									"followglobaltempo" : [ 0 ],
									"timestretch" : [ 0 ]
								}

							}
 ]
					}
,
					"id" : "obj-87",
					"maxclass" : "playlist~",
					"numinlets" : 1,
					"numoutlets" : 5,
					"outlettype" : [ "signal", "signal", "signal", "", "dictionary" ],
					"patching_rect" : [ 789.0, 651.0, 150.0, 30.0 ],
					"style" : ""
				}

			}
, 			{
				"box" : 				{
					"id" : "obj-12",
					"maxclass" : "newobj",
					"numinlets" : 6,
					"numoutlets" : 6,
					"outlettype" : [ "", "", "", "", "", "" ],
					"patching_rect" : [ 318.941162, 375.0, 177.0, 22.0 ],
					"style" : "",
					"text" : "route start move sonar win lose"
				}

			}
, 			{
				"box" : 				{
					"id" : "obj-22",
					"maxclass" : "comment",
					"numinlets" : 1,
					"numoutlets" : 0,
					"patching_rect" : [ 1116.5, 660.0, 123.0, 20.0 ],
					"style" : "",
					"text" : "Normalized Distance"
				}

			}
, 			{
				"box" : 				{
					"id" : "obj-20",
					"maxclass" : "comment",
					"numinlets" : 1,
					"numoutlets" : 0,
					"patching_rect" : [ 949.0, 660.0, 52.0, 20.0 ],
					"style" : "",
					"text" : "Azimuth"
				}

			}
, 			{
				"box" : 				{
					"format" : 6,
					"id" : "obj-21",
					"maxclass" : "flonum",
					"numinlets" : 1,
					"numoutlets" : 2,
					"outlettype" : [ "", "bang" ],
					"parameter_enable" : 0,
					"patching_rect" : [ 1004.941162, 660.0, 50.0, 22.0 ],
					"style" : ""
				}

			}
, 			{
				"box" : 				{
					"id" : "obj-14",
					"maxclass" : "newobj",
					"numinlets" : 6,
					"numoutlets" : 1,
					"outlettype" : [ "" ],
					"patching_rect" : [ 1004.941162, 614.666687, 143.0, 22.0 ],
					"style" : "",
					"text" : "scale -3.87 2.356 0.96 0."
				}

			}
, 			{
				"box" : 				{
					"id" : "obj-11",
					"maxclass" : "newobj",
					"numinlets" : 2,
					"numoutlets" : 1,
					"outlettype" : [ "float" ],
					"patching_rect" : [ 1070.0, 573.0, 47.0, 22.0 ],
					"style" : "",
					"text" : "/ 14.14"
				}

			}
, 			{
				"box" : 				{
					"format" : 6,
					"id" : "obj-1",
					"maxclass" : "flonum",
					"numinlets" : 1,
					"numoutlets" : 2,
					"outlettype" : [ "", "bang" ],
					"parameter_enable" : 0,
					"patching_rect" : [ 1004.941162, 573.0, 51.0, 22.0 ],
					"style" : ""
				}

			}
, 			{
				"box" : 				{
					"format" : 6,
					"id" : "obj-102",
					"maxclass" : "flonum",
					"numinlets" : 1,
					"numoutlets" : 2,
					"outlettype" : [ "", "bang" ],
					"parameter_enable" : 0,
					"patching_rect" : [ 1070.0, 540.0, 50.0, 22.0 ],
					"style" : ""
				}

			}
, 			{
				"box" : 				{
					"id" : "obj-23",
					"maxclass" : "number",
					"numinlets" : 1,
					"numoutlets" : 2,
					"outlettype" : [ "", "bang" ],
					"parameter_enable" : 0,
					"patching_rect" : [ 318.941162, 193.0, 50.0, 22.0 ],
					"style" : ""
				}

			}
, 			{
				"box" : 				{
					"id" : "obj-10",
					"maxclass" : "newobj",
					"numinlets" : 1,
					"numoutlets" : 3,
					"outlettype" : [ "int", "float", "float" ],
					"patching_rect" : [ 789.0, 480.54248, 86.0, 22.0 ],
					"style" : "",
					"text" : "unpack 0 0. 0."
				}

			}
, 			{
				"box" : 				{
					"id" : "obj-9",
					"maxclass" : "newobj",
					"numinlets" : 1,
					"numoutlets" : 1,
					"outlettype" : [ "" ],
					"patching_rect" : [ 318.941162, 333.575073, 72.0, 22.0 ],
					"style" : "newobjGreen-1",
					"text" : "fromsymbol"
				}

			}
, 			{
				"box" : 				{
					"id" : "obj-99",
					"maxclass" : "newobj",
					"numinlets" : 3,
					"numoutlets" : 1,
					"outlettype" : [ "int" ],
					"patching_rect" : [ 318.941162, 297.607666, 46.0, 22.0 ],
					"style" : "newobjBlue-1",
					"text" : "itoa"
				}

			}
, 			{
				"box" : 				{
					"id" : "obj-100",
					"maxclass" : "newobj",
					"numinlets" : 2,
					"numoutlets" : 2,
					"outlettype" : [ "", "" ],
					"patching_rect" : [ 318.941162, 261.640228, 81.0, 22.0 ],
					"style" : "",
					"text" : "zl group 1000"
				}

			}
, 			{
				"box" : 				{
					"id" : "obj-101",
					"maxclass" : "newobj",
					"numinlets" : 3,
					"numoutlets" : 3,
					"outlettype" : [ "bang", "bang", "" ],
					"patching_rect" : [ 318.941162, 225.672821, 58.0, 22.0 ],
					"style" : "",
					"text" : "sel 13 10"
				}

			}
, 			{
				"box" : 				{
					"id" : "obj-94",
					"maxclass" : "comment",
					"numinlets" : 1,
					"numoutlets" : 0,
					"patching_rect" : [ 287.0, 37.0, 157.0, 20.0 ],
					"style" : "",
					"text" : "< start polling the serial port"
				}

			}
, 			{
				"box" : 				{
					"id" : "obj-6",
					"maxclass" : "toggle",
					"numinlets" : 1,
					"numoutlets" : 1,
					"outlettype" : [ "int" ],
					"parameter_enable" : 0,
					"patching_rect" : [ 259.0, 36.0, 24.0, 24.0 ],
					"presentation_rect" : [ 45.0, 45.0, 24.0, 24.0 ],
					"style" : "toggleGreen"
				}

			}
, 			{
				"box" : 				{
					"bgcolor" : [ 0.454902, 0.462745, 0.482353, 1.0 ],
					"bgcolor2" : [ 0.290196, 0.309804, 0.301961, 1.0 ],
					"bgfillcolor_angle" : 270.0,
					"bgfillcolor_autogradient" : 0.0,
					"bgfillcolor_color" : [ 0.290196, 0.309804, 0.301961, 1.0 ],
					"bgfillcolor_color1" : [ 0.454902, 0.462745, 0.482353, 1.0 ],
					"bgfillcolor_color2" : [ 0.290196, 0.309804, 0.301961, 1.0 ],
					"bgfillcolor_proportion" : 0.39,
					"bgfillcolor_type" : "gradient",
					"gradient" : 1,
					"id" : "obj-2",
					"maxclass" : "message",
					"numinlets" : 2,
					"numoutlets" : 1,
					"outlettype" : [ "" ],
					"patching_rect" : [ 335.0, 64.0, 33.0, 22.0 ],
					"style" : "",
					"text" : "print"
				}

			}
, 			{
				"box" : 				{
					"id" : "obj-78",
					"maxclass" : "newobj",
					"numinlets" : 1,
					"numoutlets" : 2,
					"outlettype" : [ "int", "" ],
					"patching_rect" : [ 318.941162, 139.0, 79.0, 22.0 ],
					"style" : "",
					"text" : "serial c 9600"
				}

			}
, 			{
				"box" : 				{
					"id" : "obj-71",
					"maxclass" : "ezdac~",
					"numinlets" : 2,
					"numoutlets" : 0,
					"patching_rect" : [ 719.441162, 978.0, 45.0, 45.0 ],
					"style" : ""
				}

			}
, 			{
				"box" : 				{
					"format" : 6,
					"id" : "obj-66",
					"maxclass" : "flonum",
					"numinlets" : 1,
					"numoutlets" : 2,
					"outlettype" : [ "", "bang" ],
					"parameter_enable" : 0,
					"patching_rect" : [ 1070.0, 660.0, 42.0, 22.0 ],
					"style" : ""
				}

			}
, 			{
				"box" : 				{
					"id" : "obj-44",
					"maxclass" : "newobj",
					"numinlets" : 3,
					"numoutlets" : 1,
					"outlettype" : [ "" ],
					"patching_rect" : [ 1004.941162, 738.666687, 86.0, 22.0 ],
					"style" : "",
					"text" : "pack 0. 0. 500"
				}

			}
, 			{
				"box" : 				{
					"fontname" : "Lato",
					"fontsize" : 11.595187,
					"id" : "obj-18",
					"linecount" : 2,
					"maxclass" : "message",
					"numinlets" : 2,
					"numoutlets" : 1,
					"outlettype" : [ "" ],
					"patching_rect" : [ 1004.941162, 779.666687, 96.0, 36.0 ],
					"style" : "",
					"text" : "0.517469 0.212164 500"
				}

			}
, 			{
				"box" : 				{
					"id" : "obj-8",
					"maxclass" : "meter~",
					"numinlets" : 1,
					"numoutlets" : 1,
					"outlettype" : [ "float" ],
					"patching_rect" : [ 636.941162, 978.0, 16.0, 59.0 ],
					"style" : ""
				}

			}
, 			{
				"box" : 				{
					"id" : "obj-7",
					"maxclass" : "meter~",
					"numinlets" : 1,
					"numoutlets" : 1,
					"outlettype" : [ "float" ],
					"patching_rect" : [ 607.524475, 978.0, 16.0, 59.0 ],
					"style" : ""
				}

			}
, 			{
				"box" : 				{
					"id" : "obj-29",
					"maxclass" : "meter~",
					"numinlets" : 1,
					"numoutlets" : 1,
					"outlettype" : [ "float" ],
					"patching_rect" : [ 573.0, 978.0, 16.0, 59.0 ],
					"style" : ""
				}

			}
, 			{
				"box" : 				{
					"id" : "obj-30",
					"maxclass" : "meter~",
					"numinlets" : 1,
					"numoutlets" : 1,
					"outlettype" : [ "float" ],
					"patching_rect" : [ 532.0, 978.0, 16.0, 59.0 ],
					"style" : ""
				}

			}
, 			{
				"box" : 				{
					"fontname" : "Lato",
					"fontsize" : 11.595187,
					"id" : "obj-31",
					"maxclass" : "newobj",
					"numinlets" : 4,
					"numoutlets" : 0,
					"patching_rect" : [ 509.0, 1054.0, 74.0, 22.0 ],
					"style" : "",
					"text" : "dac~ 1 2 4 3"
				}

			}
, 			{
				"box" : 				{
					"color" : [ 0.4, 0.4, 0.4, 1.0 ],
					"fontname" : "Lato",
					"fontsize" : 11.595187,
					"id" : "obj-32",
					"maxclass" : "newobj",
					"numinlets" : 2,
					"numoutlets" : 4,
					"outlettype" : [ "signal", "signal", "signal", "signal" ],
					"patching_rect" : [ 515.0, 952.0, 140.941177, 22.0 ],
					"style" : "",
					"text" : "spat4"
				}

			}
, 			{
				"box" : 				{
					"background" : 1,
					"fontface" : 3,
					"fontname" : "Lato",
					"fontsize" : 20.0,
					"id" : "obj-80",
					"maxclass" : "comment",
					"numinlets" : 1,
					"numoutlets" : 0,
					"patching_rect" : [ 56.0, 36.0, 139.0, 30.0 ],
					"style" : "",
					"text" : "Serial Monitor"
				}

			}
 ],
		"lines" : [ 			{
				"patchline" : 				{
					"destination" : [ "obj-14", 0 ],
					"source" : [ "obj-1", 0 ]
				}

			}
, 			{
				"patchline" : 				{
					"destination" : [ "obj-1", 0 ],
					"source" : [ "obj-10", 1 ]
				}

			}
, 			{
				"patchline" : 				{
					"destination" : [ "obj-102", 0 ],
					"source" : [ "obj-10", 2 ]
				}

			}
, 			{
				"patchline" : 				{
					"destination" : [ "obj-105", 0 ],
					"order" : 1,
					"source" : [ "obj-10", 0 ]
				}

			}
, 			{
				"patchline" : 				{
					"destination" : [ "obj-87", 0 ],
					"order" : 0,
					"source" : [ "obj-10", 0 ]
				}

			}
, 			{
				"patchline" : 				{
					"destination" : [ "obj-99", 0 ],
					"source" : [ "obj-100", 0 ]
				}

			}
, 			{
				"patchline" : 				{
					"destination" : [ "obj-100", 0 ],
					"midpoints" : [ 367.441162, 264.324372, 330.941162, 264.324372, 330.941162, 269.692658, 328.441162, 269.692658 ],
					"source" : [ "obj-101", 2 ]
				}

			}
, 			{
				"patchline" : 				{
					"destination" : [ "obj-100", 0 ],
					"source" : [ "obj-101", 0 ]
				}

			}
, 			{
				"patchline" : 				{
					"destination" : [ "obj-11", 0 ],
					"source" : [ "obj-102", 0 ]
				}

			}
, 			{
				"patchline" : 				{
					"destination" : [ "obj-89", 0 ],
					"source" : [ "obj-105", 0 ]
				}

			}
, 			{
				"patchline" : 				{
					"destination" : [ "obj-66", 0 ],
					"source" : [ "obj-11", 0 ]
				}

			}
, 			{
				"patchline" : 				{
					"destination" : [ "obj-38", 0 ],
					"source" : [ "obj-114", 0 ]
				}

			}
, 			{
				"patchline" : 				{
					"destination" : [ "obj-87", 0 ],
					"source" : [ "obj-116", 0 ]
				}

			}
, 			{
				"patchline" : 				{
					"destination" : [ "obj-10", 0 ],
					"source" : [ "obj-12", 2 ]
				}

			}
, 			{
				"patchline" : 				{
					"destination" : [ "obj-105", 0 ],
					"order" : 2,
					"source" : [ "obj-12", 4 ]
				}

			}
, 			{
				"patchline" : 				{
					"destination" : [ "obj-105", 0 ],
					"order" : 1,
					"source" : [ "obj-12", 3 ]
				}

			}
, 			{
				"patchline" : 				{
					"destination" : [ "obj-114", 0 ],
					"order" : 2,
					"source" : [ "obj-12", 1 ]
				}

			}
, 			{
				"patchline" : 				{
					"destination" : [ "obj-116", 0 ],
					"order" : 0,
					"source" : [ "obj-12", 4 ]
				}

			}
, 			{
				"patchline" : 				{
					"destination" : [ "obj-116", 0 ],
					"order" : 0,
					"source" : [ "obj-12", 1 ]
				}

			}
, 			{
				"patchline" : 				{
					"destination" : [ "obj-36", 0 ],
					"order" : 0,
					"source" : [ "obj-12", 3 ]
				}

			}
, 			{
				"patchline" : 				{
					"destination" : [ "obj-38", 0 ],
					"source" : [ "obj-12", 0 ]
				}

			}
, 			{
				"patchline" : 				{
					"destination" : [ "obj-39", 0 ],
					"order" : 1,
					"source" : [ "obj-12", 4 ]
				}

			}
, 			{
				"patchline" : 				{
					"destination" : [ "obj-89", 0 ],
					"order" : 1,
					"source" : [ "obj-12", 1 ]
				}

			}
, 			{
				"patchline" : 				{
					"destination" : [ "obj-78", 0 ],
					"source" : [ "obj-13", 0 ]
				}

			}
, 			{
				"patchline" : 				{
					"destination" : [ "obj-21", 0 ],
					"source" : [ "obj-14", 0 ]
				}

			}
, 			{
				"patchline" : 				{
					"destination" : [ "obj-31", 3 ],
					"order" : 0,
					"source" : [ "obj-15", 0 ]
				}

			}
, 			{
				"patchline" : 				{
					"destination" : [ "obj-31", 2 ],
					"order" : 1,
					"source" : [ "obj-15", 0 ]
				}

			}
, 			{
				"patchline" : 				{
					"destination" : [ "obj-31", 1 ],
					"order" : 2,
					"source" : [ "obj-15", 0 ]
				}

			}
, 			{
				"patchline" : 				{
					"destination" : [ "obj-31", 0 ],
					"order" : 3,
					"source" : [ "obj-15", 0 ]
				}

			}
, 			{
				"patchline" : 				{
					"destination" : [ "obj-32", 1 ],
					"source" : [ "obj-18", 0 ]
				}

			}
, 			{
				"patchline" : 				{
					"destination" : [ "obj-78", 0 ],
					"source" : [ "obj-2", 0 ]
				}

			}
, 			{
				"patchline" : 				{
					"destination" : [ "obj-44", 0 ],
					"source" : [ "obj-21", 0 ]
				}

			}
, 			{
				"patchline" : 				{
					"destination" : [ "obj-101", 0 ],
					"source" : [ "obj-23", 0 ]
				}

			}
, 			{
				"patchline" : 				{
					"destination" : [ "obj-29", 0 ],
					"order" : 0,
					"source" : [ "obj-32", 1 ]
				}

			}
, 			{
				"patchline" : 				{
					"destination" : [ "obj-30", 0 ],
					"order" : 0,
					"source" : [ "obj-32", 0 ]
				}

			}
, 			{
				"patchline" : 				{
					"destination" : [ "obj-31", 3 ],
					"order" : 1,
					"source" : [ "obj-32", 3 ]
				}

			}
, 			{
				"patchline" : 				{
					"destination" : [ "obj-31", 2 ],
					"order" : 1,
					"source" : [ "obj-32", 2 ]
				}

			}
, 			{
				"patchline" : 				{
					"destination" : [ "obj-31", 1 ],
					"order" : 1,
					"source" : [ "obj-32", 1 ]
				}

			}
, 			{
				"patchline" : 				{
					"destination" : [ "obj-31", 0 ],
					"order" : 1,
					"source" : [ "obj-32", 0 ]
				}

			}
, 			{
				"patchline" : 				{
					"destination" : [ "obj-7", 0 ],
					"order" : 0,
					"source" : [ "obj-32", 3 ]
				}

			}
, 			{
				"patchline" : 				{
					"destination" : [ "obj-8", 0 ],
					"order" : 0,
					"source" : [ "obj-32", 2 ]
				}

			}
, 			{
				"patchline" : 				{
					"destination" : [ "obj-4", 0 ],
					"source" : [ "obj-36", 0 ]
				}

			}
, 			{
				"patchline" : 				{
					"destination" : [ "obj-4", 0 ],
					"source" : [ "obj-38", 0 ]
				}

			}
, 			{
				"patchline" : 				{
					"destination" : [ "obj-4", 0 ],
					"source" : [ "obj-39", 0 ]
				}

			}
, 			{
				"patchline" : 				{
					"destination" : [ "obj-31", 1 ],
					"order" : 0,
					"source" : [ "obj-4", 0 ]
				}

			}
, 			{
				"patchline" : 				{
					"destination" : [ "obj-31", 0 ],
					"order" : 1,
					"source" : [ "obj-4", 0 ]
				}

			}
, 			{
				"patchline" : 				{
					"destination" : [ "obj-18", 1 ],
					"order" : 0,
					"source" : [ "obj-44", 0 ]
				}

			}
, 			{
				"patchline" : 				{
					"destination" : [ "obj-18", 0 ],
					"order" : 1,
					"source" : [ "obj-44", 0 ]
				}

			}
, 			{
				"patchline" : 				{
					"destination" : [ "obj-78", 0 ],
					"source" : [ "obj-5", 0 ]
				}

			}
, 			{
				"patchline" : 				{
					"destination" : [ "obj-13", 0 ],
					"source" : [ "obj-6", 0 ]
				}

			}
, 			{
				"patchline" : 				{
					"destination" : [ "obj-32", 0 ],
					"source" : [ "obj-65", 0 ]
				}

			}
, 			{
				"patchline" : 				{
					"destination" : [ "obj-44", 1 ],
					"order" : 1,
					"source" : [ "obj-66", 0 ]
				}

			}
, 			{
				"patchline" : 				{
					"destination" : [ "obj-68", 0 ],
					"order" : 0,
					"source" : [ "obj-66", 0 ]
				}

			}
, 			{
				"patchline" : 				{
					"destination" : [ "obj-44", 0 ],
					"source" : [ "obj-68", 0 ]
				}

			}
, 			{
				"patchline" : 				{
					"destination" : [ "obj-23", 0 ],
					"source" : [ "obj-78", 0 ]
				}

			}
, 			{
				"patchline" : 				{
					"destination" : [ "obj-65", 0 ],
					"source" : [ "obj-87", 0 ]
				}

			}
, 			{
				"patchline" : 				{
					"destination" : [ "obj-15", 0 ],
					"source" : [ "obj-89", 0 ]
				}

			}
, 			{
				"patchline" : 				{
					"destination" : [ "obj-12", 0 ],
					"order" : 0,
					"source" : [ "obj-9", 0 ]
				}

			}
, 			{
				"patchline" : 				{
					"destination" : [ "obj-3", 0 ],
					"order" : 1,
					"source" : [ "obj-9", 0 ]
				}

			}
, 			{
				"patchline" : 				{
					"destination" : [ "obj-9", 0 ],
					"source" : [ "obj-99", 0 ]
				}

			}
 ],
		"dependency_cache" : [ 			{
				"name" : "spat4.maxpat",
				"bootpath" : "C:/ProgramData/Max 7/examples/spatialization/quad-spatializer-folder/lib",
				"patcherrelativepath" : "../../../../../ProgramData/Max 7/examples/spatialization/quad-spatializer-folder/lib",
				"type" : "JSON",
				"implicit" : 1
			}
, 			{
				"name" : "pan2S.maxpat",
				"bootpath" : "C:/ProgramData/Max 7/examples/spatialization/panning/lib",
				"patcherrelativepath" : "../../../../../ProgramData/Max 7/examples/spatialization/panning/lib",
				"type" : "JSON",
				"implicit" : 1
			}
, 			{
				"name" : "pan4S.maxpat",
				"bootpath" : "C:/ProgramData/Max 7/examples/spatialization/panning/lib",
				"patcherrelativepath" : "../../../../../ProgramData/Max 7/examples/spatialization/panning/lib",
				"type" : "JSON",
				"implicit" : 1
			}
, 			{
				"name" : "yafr2.maxpat",
				"bootpath" : "C:/ProgramData/Max 7/examples/effects/reverb/lib",
				"patcherrelativepath" : "../../../../../ProgramData/Max 7/examples/effects/reverb/lib",
				"type" : "JSON",
				"implicit" : 1
			}
, 			{
				"name" : "38701__argitoth__archi-sonar-02.wav",
				"bootpath" : "~/Documents/Arduino/AudioGame",
				"patcherrelativepath" : ".",
				"type" : "WAVE",
				"implicit" : 1
			}
, 			{
				"name" : "197751__wjoojoo__underwater-ambience-lake-lbj-08232013-1.flac",
				"bootpath" : "~/Documents/Arduino/AudioGame",
				"patcherrelativepath" : ".",
				"type" : "FLAC",
				"implicit" : 1
			}
, 			{
				"name" : "Mission Completed.wav",
				"bootpath" : "~/Documents/Arduino/AudioGame",
				"patcherrelativepath" : ".",
				"type" : "WAVE",
				"implicit" : 1
			}
, 			{
				"name" : "Mission Falied.wav",
				"bootpath" : "~/Documents/Arduino/AudioGame",
				"patcherrelativepath" : ".",
				"type" : "WAVE",
				"implicit" : 1
			}
, 			{
				"name" : "instructions.wav",
				"bootpath" : "~/Documents/Arduino/AudioGame",
				"patcherrelativepath" : ".",
				"type" : "WAVE",
				"implicit" : 1
			}
 ],
		"autosave" : 0,
		"styles" : [ 			{
				"name" : "newobjBlue-1",
				"default" : 				{
					"accentcolor" : [ 0.317647, 0.654902, 0.976471, 1.0 ]
				}
,
				"parentstyle" : "",
				"multi" : 0
			}
, 			{
				"name" : "newobjGreen-1",
				"default" : 				{
					"accentcolor" : [ 0.0, 0.533333, 0.168627, 1.0 ]
				}
,
				"parentstyle" : "",
				"multi" : 0
			}
, 			{
				"name" : "newobjYellow-1",
				"default" : 				{
					"accentcolor" : [ 0.82517, 0.78181, 0.059545, 1.0 ],
					"fontsize" : [ 12.059008 ]
				}
,
				"parentstyle" : "",
				"multi" : 0
			}
, 			{
				"name" : "numberGold-1",
				"default" : 				{
					"accentcolor" : [ 0.764706, 0.592157, 0.101961, 1.0 ]
				}
,
				"parentstyle" : "",
				"multi" : 0
			}
 ]
	}

}
